<svg width="215" height="176" viewBox="0 0 215 176" fill="none" xmlns="http://www.w3.org/2000/svg">
<path opacity="0.1" d="M67.6 175.571C46.64 175.571 30.16 167.651 18.16 151.811C6.32 135.811 0.4 114.611 0.4 88.2111C0.4 61.8111 6.32 40.6911 18.16 24.8511C30.16 8.85111 46.64 0.85111 67.6 0.85111C88.72 0.85111 105.2 8.85111 117.04 24.8511C128.88 40.6911 134.8 61.8111 134.8 88.2111C134.8 114.611 128.88 135.811 117.04 151.811C105.2 167.651 88.72 175.571 67.6 175.571ZM42.16 129.251C47.92 138.531 56.4 143.171 67.6 143.171C78.8 143.171 87.28 138.451 93.04 129.011C98.96 119.571 101.92 105.971 101.92 88.2111C101.92 70.2911 98.96 56.6111 93.04 47.1711C87.28 37.7311 78.8 33.0111 67.6 33.0111C56.4 33.0111 47.92 37.7311 42.16 47.1711C36.4 56.6111 33.52 70.2911 33.52 88.2111C33.52 106.131 36.4 119.811 42.16 129.251ZM185.284 4.21111H214.084V172.211H180.964V39.2511L149.284 48.1311L141.124 19.8111L185.284 4.21111Z" fill="white"/>
</svg>
