<svg width="260" height="176" viewBox="0 0 260 176" fill="none" xmlns="http://www.w3.org/2000/svg">
<path opacity="0.1" d="M67.6 175.571C46.64 175.571 30.16 167.651 18.16 151.811C6.32 135.811 0.4 114.611 0.4 88.2112C0.4 61.8112 6.32 40.6912 18.16 24.8512C30.16 8.85117 46.64 0.851171 67.6 0.851171C88.72 0.851171 105.2 8.85117 117.04 24.8512C128.88 40.6912 134.8 61.8112 134.8 88.2112C134.8 114.611 128.88 135.811 117.04 151.811C105.2 167.651 88.72 175.571 67.6 175.571ZM42.16 129.251C47.92 138.531 56.4 143.171 67.6 143.171C78.8 143.171 87.28 138.451 93.04 129.011C98.96 119.571 101.92 105.971 101.92 88.2112C101.92 70.2912 98.96 56.6112 93.04 47.1712C87.28 37.7312 78.8 33.0112 67.6 33.0112C56.4 33.0112 47.92 37.7312 42.16 47.1712C36.4 56.6112 33.52 70.2912 33.52 88.2112C33.52 106.131 36.4 119.811 42.16 129.251ZM221.095 72.3712C232.455 75.7312 241.655 81.6512 248.695 90.1312C255.895 98.4512 259.495 108.531 259.495 120.371C259.495 137.651 253.655 151.171 241.975 160.931C230.455 170.691 216.295 175.571 199.495 175.571C186.375 175.571 174.615 172.611 164.215 166.691C153.975 160.611 146.535 151.731 141.895 140.051L170.215 123.731C174.375 136.691 184.135 143.171 199.495 143.171C207.975 143.171 214.535 141.171 219.175 137.171C223.975 133.011 226.375 127.411 226.375 120.371C226.375 113.491 223.975 107.971 219.175 103.811C214.535 99.6512 207.975 97.5712 199.495 97.5712H192.295L179.575 78.3712L212.695 35.1712H146.935V4.21117H252.535V31.5712L221.095 72.3712Z" fill="white"/>
</svg>
