<svg width="1078" height="81" viewBox="0 0 1078 81" fill="none" xmlns="http://www.w3.org/2000/svg">
<mask id="path-1-inside-1_741_545" fill="white">
<path d="M24 0.5H1054V80.5H24V0.5Z"/>
</mask>
<path d="M1054 79.5H24V81.5H1054V79.5Z" fill="#D9D9D9" mask="url(#path-1-inside-1_741_545)"/>
<path d="M143 32.5C143 28.0817 146.582 24.5 151 24.5H248C252.418 24.5 256 28.0817 256 32.5V48.5C256 52.9183 252.418 56.5 248 56.5H151C146.582 56.5 143 52.9183 143 48.5V32.5Z" fill="#F5F5F5"/>
<path d="M161.773 38.5H160.364C160.28 38.0947 160.134 37.7386 159.926 37.4318C159.722 37.125 159.472 36.8674 159.176 36.6591C158.884 36.447 158.561 36.2879 158.205 36.1818C157.848 36.0758 157.477 36.0227 157.091 36.0227C156.386 36.0227 155.748 36.2008 155.176 36.5568C154.608 36.9129 154.155 37.4375 153.818 38.1307C153.485 38.8239 153.318 39.6742 153.318 40.6818C153.318 41.6894 153.485 42.5398 153.818 43.233C154.155 43.9261 154.608 44.4508 155.176 44.8068C155.748 45.1629 156.386 45.3409 157.091 45.3409C157.477 45.3409 157.848 45.2879 158.205 45.1818C158.561 45.0758 158.884 44.9186 159.176 44.7102C159.472 44.4981 159.722 44.2386 159.926 43.9318C160.134 43.6212 160.28 43.2652 160.364 42.8636H161.773C161.667 43.4583 161.473 43.9905 161.193 44.4602C160.913 44.9299 160.564 45.3295 160.148 45.6591C159.731 45.9848 159.263 46.233 158.744 46.4034C158.229 46.5739 157.678 46.6591 157.091 46.6591C156.098 46.6591 155.216 46.4167 154.443 45.9318C153.67 45.447 153.063 44.7576 152.619 43.8636C152.176 42.9697 151.955 41.9091 151.955 40.6818C151.955 39.4545 152.176 38.3939 152.619 37.5C153.063 36.6061 153.67 35.9167 154.443 35.4318C155.216 34.947 156.098 34.7045 157.091 34.7045C157.678 34.7045 158.229 34.7898 158.744 34.9602C159.263 35.1307 159.731 35.3807 160.148 35.7102C160.564 36.036 160.913 36.4337 161.193 36.9034C161.473 37.3693 161.667 37.9015 161.773 38.5ZM167.413 46.6818C166.625 46.6818 165.934 46.4943 165.339 46.1193C164.749 45.7443 164.286 45.2197 163.953 44.5455C163.624 43.8712 163.459 43.0833 163.459 42.1818C163.459 41.2727 163.624 40.4792 163.953 39.8011C164.286 39.1231 164.749 38.5966 165.339 38.2216C165.934 37.8466 166.625 37.6591 167.413 37.6591C168.201 37.6591 168.891 37.8466 169.482 38.2216C170.076 38.5966 170.538 39.1231 170.868 39.8011C171.201 40.4792 171.368 41.2727 171.368 42.1818C171.368 43.0833 171.201 43.8712 170.868 44.5455C170.538 45.2197 170.076 45.7443 169.482 46.1193C168.891 46.4943 168.201 46.6818 167.413 46.6818ZM167.413 45.4773C168.012 45.4773 168.504 45.3239 168.891 45.017C169.277 44.7102 169.563 44.3068 169.749 43.8068C169.934 43.3068 170.027 42.7652 170.027 42.1818C170.027 41.5985 169.934 41.0549 169.749 40.5511C169.563 40.0473 169.277 39.6402 168.891 39.3295C168.504 39.0189 168.012 38.8636 167.413 38.8636C166.815 38.8636 166.322 39.0189 165.936 39.3295C165.55 39.6402 165.264 40.0473 165.078 40.5511C164.893 41.0549 164.8 41.5985 164.8 42.1818C164.8 42.7652 164.893 43.3068 165.078 43.8068C165.264 44.3068 165.55 44.7102 165.936 45.017C166.322 45.3239 166.815 45.4773 167.413 45.4773ZM172.869 44.2727H174.301C174.331 44.6667 174.509 44.9659 174.835 45.1705C175.165 45.375 175.593 45.4773 176.119 45.4773C176.657 45.4773 177.117 45.3674 177.5 45.1477C177.883 44.9242 178.074 44.5644 178.074 44.0682C178.074 43.7765 178.002 43.5227 177.858 43.3068C177.714 43.0871 177.511 42.9167 177.25 42.7955C176.989 42.6742 176.68 42.6136 176.324 42.6136H174.824V41.4091H176.324C176.858 41.4091 177.252 41.2879 177.506 41.0455C177.763 40.803 177.892 40.5 177.892 40.1364C177.892 39.7462 177.754 39.4337 177.477 39.1989C177.201 38.9602 176.809 38.8409 176.301 38.8409C175.79 38.8409 175.364 38.9564 175.023 39.1875C174.682 39.4148 174.502 39.7083 174.483 40.0682H173.074C173.089 39.5985 173.233 39.1837 173.506 38.8239C173.778 38.4602 174.15 38.1761 174.619 37.9716C175.089 37.7633 175.627 37.6591 176.233 37.6591C176.847 37.6591 177.379 37.767 177.83 37.983C178.284 38.1951 178.634 38.4848 178.881 38.8523C179.131 39.2159 179.256 39.6288 179.256 40.0909C179.256 40.5833 179.117 40.9811 178.841 41.2841C178.564 41.5871 178.218 41.803 177.801 41.9318V42.0227C178.131 42.0455 178.417 42.1515 178.659 42.3409C178.905 42.5265 179.097 42.7708 179.233 43.0739C179.369 43.3731 179.438 43.7045 179.438 44.0682C179.438 44.5985 179.295 45.0606 179.011 45.4545C178.727 45.8447 178.337 46.1477 177.841 46.3636C177.345 46.5758 176.778 46.6818 176.142 46.6818C175.525 46.6818 174.972 46.5814 174.483 46.3807C173.994 46.1761 173.606 45.8939 173.318 45.5341C173.034 45.1705 172.884 44.75 172.869 44.2727ZM180.389 49V45.25H181.116C181.295 45.0644 181.448 44.8636 181.577 44.6477C181.705 44.4318 181.817 44.1761 181.912 43.8807C182.01 43.5814 182.094 43.2178 182.162 42.7898C182.23 42.358 182.291 41.8371 182.344 41.2273L182.639 37.7727H188.185V45.25H189.526V49H188.185V46.5H181.73V49H180.389ZM182.639 45.25H186.844V39.0227H183.889L183.662 41.2273C183.567 42.1402 183.45 42.9375 183.31 43.6193C183.17 44.3011 182.946 44.8447 182.639 45.25ZM193.874 46.7045C193.321 46.7045 192.819 46.6004 192.368 46.392C191.917 46.1799 191.559 45.875 191.294 45.4773C191.029 45.0758 190.896 44.5909 190.896 44.0227C190.896 43.5227 190.995 43.1174 191.192 42.8068C191.389 42.4924 191.652 42.2462 191.982 42.0682C192.311 41.8902 192.675 41.7576 193.072 41.6705C193.474 41.5795 193.877 41.5076 194.283 41.4545C194.813 41.3864 195.243 41.3352 195.572 41.3011C195.906 41.2633 196.148 41.2008 196.3 41.1136C196.455 41.0265 196.533 40.875 196.533 40.6591V40.6136C196.533 40.053 196.379 39.6174 196.072 39.3068C195.769 38.9962 195.309 38.8409 194.692 38.8409C194.052 38.8409 193.55 38.9811 193.186 39.2614C192.822 39.5417 192.567 39.8409 192.419 40.1591L191.146 39.7045C191.374 39.1742 191.677 38.7614 192.055 38.4659C192.438 38.1667 192.855 37.9583 193.305 37.8409C193.76 37.7197 194.207 37.6591 194.646 37.6591C194.927 37.6591 195.249 37.6932 195.612 37.7614C195.98 37.8258 196.334 37.9602 196.675 38.1648C197.019 38.3693 197.305 38.678 197.533 39.0909C197.76 39.5038 197.874 40.0568 197.874 40.75V46.5H196.533V45.3182H196.464C196.374 45.5076 196.222 45.7102 196.01 45.9261C195.798 46.142 195.516 46.3258 195.163 46.4773C194.811 46.6288 194.381 46.7045 193.874 46.7045ZM194.078 45.5C194.608 45.5 195.055 45.3958 195.419 45.1875C195.786 44.9792 196.063 44.7102 196.249 44.3807C196.438 44.0511 196.533 43.7045 196.533 43.3409V42.1136C196.476 42.1818 196.351 42.2443 196.158 42.3011C195.968 42.3542 195.749 42.4015 195.499 42.4432C195.252 42.4811 195.012 42.5152 194.777 42.5455C194.546 42.572 194.358 42.5947 194.214 42.6136C193.866 42.6591 193.54 42.733 193.237 42.8352C192.938 42.9337 192.696 43.0833 192.51 43.2841C192.328 43.4811 192.237 43.75 192.237 44.0909C192.237 44.5568 192.41 44.9091 192.754 45.1477C193.103 45.3826 193.544 45.5 194.078 45.5ZM199.134 39.0227V37.7727H206.224V39.0227H203.361V46.5H202.02V39.0227H199.134ZM209.339 40.9318H211.839C212.862 40.9318 213.644 41.1913 214.186 41.7102C214.728 42.2292 214.999 42.8864 214.999 43.6818C214.999 44.2045 214.877 44.6799 214.635 45.108C214.393 45.5322 214.036 45.8712 213.567 46.125C213.097 46.375 212.521 46.5 211.839 46.5H208.18V37.7727H209.521V45.25H211.839C212.37 45.25 212.805 45.1098 213.146 44.8295C213.487 44.5492 213.658 44.1894 213.658 43.75C213.658 43.2879 213.487 42.911 213.146 42.6193C212.805 42.3277 212.37 42.1818 211.839 42.1818H209.339V40.9318ZM221.04 39.0227V37.7727H228.131V39.0227H225.267V46.5H223.926V39.0227H221.04ZM230.95 49.7727C230.723 49.7727 230.52 49.7538 230.342 49.7159C230.164 49.6818 230.041 49.6477 229.973 49.6136L230.314 48.4318C230.64 48.5152 230.928 48.5455 231.178 48.5227C231.428 48.5 231.649 48.3883 231.842 48.1875C232.039 47.9905 232.219 47.6705 232.382 47.2273L232.632 46.5455L229.405 37.7727H230.859L233.268 44.7273H233.359L235.768 37.7727H237.223L233.518 47.7727C233.352 48.2235 233.145 48.5966 232.899 48.892C232.653 49.1913 232.367 49.4129 232.041 49.5568C231.719 49.7008 231.356 49.7727 230.95 49.7727ZM238.993 49.7727V37.7727H240.288V39.1591H240.447C240.546 39.0076 240.682 38.8144 240.857 38.5795C241.035 38.3409 241.288 38.1288 241.618 37.9432C241.951 37.7538 242.402 37.6591 242.97 37.6591C243.705 37.6591 244.353 37.8428 244.913 38.2102C245.474 38.5777 245.911 39.0985 246.226 39.7727C246.54 40.447 246.697 41.2424 246.697 42.1591C246.697 43.0833 246.54 43.8845 246.226 44.5625C245.911 45.2367 245.476 45.7595 244.919 46.1307C244.362 46.4981 243.72 46.6818 242.993 46.6818C242.432 46.6818 241.983 46.589 241.646 46.4034C241.309 46.214 241.05 46 240.868 45.7614C240.686 45.5189 240.546 45.3182 240.447 45.1591H240.334V49.7727H238.993ZM240.311 42.1364C240.311 42.7955 240.408 43.3769 240.601 43.8807C240.794 44.3807 241.076 44.7727 241.447 45.0568C241.819 45.3371 242.273 45.4773 242.811 45.4773C243.372 45.4773 243.839 45.3295 244.214 45.0341C244.593 44.7348 244.877 44.3333 245.067 43.8295C245.26 43.322 245.357 42.7576 245.357 42.1364C245.357 41.5227 245.262 40.9697 245.072 40.4773C244.887 39.9811 244.605 39.589 244.226 39.3011C243.851 39.0095 243.379 38.8636 242.811 38.8636C242.266 38.8636 241.807 39.0019 241.436 39.2784C241.065 39.5511 240.785 39.9337 240.595 40.4261C240.406 40.9148 240.311 41.4848 240.311 42.1364Z" fill="#1E1E1E"/>
<path d="M273.409 34.8636H275.091L279.045 44.5227H279.182L283.136 34.8636H284.818V46.5H283.5V37.6591H283.386L279.75 46.5H278.477L274.841 37.6591H274.727V46.5H273.409V34.8636ZM288.325 49.7727C288.098 49.7727 287.895 49.7538 287.717 49.7159C287.539 49.6818 287.416 49.6477 287.348 49.6136L287.689 48.4318C288.015 48.5152 288.303 48.5455 288.553 48.5227C288.803 48.5 289.024 48.3883 289.217 48.1875C289.414 47.9905 289.594 47.6705 289.757 47.2273L290.007 46.5455L286.78 37.7727H288.234L290.643 44.7273H290.734L293.143 37.7727H294.598L290.893 47.7727C290.727 48.2235 290.52 48.5966 290.274 48.892C290.028 49.1913 289.742 49.4129 289.416 49.5568C289.094 49.7008 288.731 49.7727 288.325 49.7727ZM295.822 44.2727H297.254C297.285 44.6667 297.463 44.9659 297.788 45.1705C298.118 45.375 298.546 45.4773 299.072 45.4773C299.61 45.4773 300.071 45.3674 300.453 45.1477C300.836 44.9242 301.027 44.5644 301.027 44.0682C301.027 43.7765 300.955 43.5227 300.811 43.3068C300.667 43.0871 300.464 42.9167 300.203 42.7955C299.942 42.6742 299.633 42.6136 299.277 42.6136H297.777V41.4091H299.277C299.811 41.4091 300.205 41.2879 300.459 41.0455C300.716 40.803 300.845 40.5 300.845 40.1364C300.845 39.7462 300.707 39.4337 300.43 39.1989C300.154 38.9602 299.762 38.8409 299.254 38.8409C298.743 38.8409 298.317 38.9564 297.976 39.1875C297.635 39.4148 297.455 39.7083 297.436 40.0682H296.027C296.042 39.5985 296.186 39.1837 296.459 38.8239C296.732 38.4602 297.103 38.1761 297.572 37.9716C298.042 37.7633 298.58 37.6591 299.186 37.6591C299.8 37.6591 300.332 37.767 300.783 37.983C301.237 38.1951 301.588 38.4848 301.834 38.8523C302.084 39.2159 302.209 39.6288 302.209 40.0909C302.209 40.5833 302.071 40.9811 301.794 41.2841C301.518 41.5871 301.171 41.803 300.754 41.9318V42.0227C301.084 42.0455 301.37 42.1515 301.612 42.3409C301.858 42.5265 302.05 42.7708 302.186 43.0739C302.322 43.3731 302.391 43.7045 302.391 44.0682C302.391 44.5985 302.249 45.0606 301.964 45.4545C301.68 45.8447 301.29 46.1477 300.794 46.3636C300.298 46.5758 299.732 46.6818 299.095 46.6818C298.478 46.6818 297.925 46.5814 297.436 46.3807C296.947 46.1761 296.559 45.8939 296.271 45.5341C295.987 45.1705 295.838 44.75 295.822 44.2727ZM307.933 46.6818C307.092 46.6818 306.367 46.4962 305.757 46.125C305.151 45.75 304.683 45.2273 304.354 44.5568C304.028 43.8826 303.865 43.0985 303.865 42.2045C303.865 41.3106 304.028 40.5227 304.354 39.8409C304.683 39.1553 305.142 38.6212 305.729 38.2386C306.32 37.8523 307.009 37.6591 307.797 37.6591C308.251 37.6591 308.7 37.7348 309.143 37.8864C309.587 38.0379 309.99 38.2841 310.354 38.625C310.717 38.9621 311.007 39.4091 311.223 39.9659C311.439 40.5227 311.547 41.2083 311.547 42.0227V42.5909H304.82V41.4318H310.183C310.183 40.9394 310.085 40.5 309.888 40.1136C309.695 39.7273 309.418 39.4223 309.058 39.1989C308.702 38.9754 308.282 38.8636 307.797 38.8636C307.263 38.8636 306.801 38.9962 306.411 39.2614C306.024 39.5227 305.727 39.8636 305.518 40.2841C305.31 40.7045 305.206 41.1553 305.206 41.6364V42.4091C305.206 43.0682 305.32 43.6269 305.547 44.0852C305.778 44.5398 306.098 44.8864 306.507 45.125C306.916 45.3598 307.392 45.4773 307.933 45.4773C308.286 45.4773 308.604 45.428 308.888 45.3295C309.176 45.2273 309.424 45.0758 309.632 44.875C309.84 44.6705 310.001 44.4167 310.115 44.1136L311.411 44.4773C311.274 44.9167 311.045 45.303 310.723 45.6364C310.401 45.9659 310.003 46.2235 309.53 46.4091C309.056 46.5909 308.524 46.6818 307.933 46.6818ZM314.928 44.5227L319.132 37.7727H320.678V46.5H319.337V39.75L315.155 46.5H313.587V37.7727H314.928V44.5227Z" fill="#1E1E1E"/>
<path d="M347.409 34.8636H348.795V44.0227H348.909L355.273 34.8636H356.636V46.5H355.227V37.3636H355.114L348.773 46.5H347.409V34.8636ZM362.82 46.6818C362.001 46.6818 361.297 46.4886 360.706 46.1023C360.115 45.7159 359.661 45.1837 359.342 44.5057C359.024 43.8277 358.865 43.053 358.865 42.1818C358.865 41.2955 359.028 40.5133 359.354 39.8352C359.683 39.1534 360.142 38.6212 360.729 38.2386C361.32 37.8523 362.009 37.6591 362.797 37.6591C363.411 37.6591 363.964 37.7727 364.456 38C364.948 38.2273 365.352 38.5455 365.666 38.9545C365.981 39.3636 366.176 39.8409 366.251 40.3864H364.911C364.808 39.9886 364.581 39.6364 364.229 39.3295C363.88 39.0189 363.411 38.8636 362.82 38.8636C362.297 38.8636 361.839 39 361.445 39.2727C361.054 39.5417 360.75 39.9223 360.53 40.4148C360.314 40.9034 360.206 41.4773 360.206 42.1364C360.206 42.8106 360.312 43.3977 360.524 43.8977C360.74 44.3977 361.043 44.786 361.433 45.0625C361.827 45.339 362.289 45.4773 362.82 45.4773C363.168 45.4773 363.484 45.4167 363.768 45.2955C364.053 45.1742 364.293 45 364.49 44.7727C364.687 44.5455 364.827 44.2727 364.911 43.9545H366.251C366.176 44.4697 365.988 44.9337 365.689 45.3466C365.393 45.7557 365.001 46.0814 364.513 46.3239C364.028 46.5625 363.464 46.6818 362.82 46.6818ZM367.524 39.0227V37.7727H374.615V39.0227H371.751V46.5H370.411V39.0227H367.524ZM379.663 46.6818C378.875 46.6818 378.184 46.4943 377.589 46.1193C376.999 45.7443 376.536 45.2197 376.203 44.5455C375.874 43.8712 375.709 43.0833 375.709 42.1818C375.709 41.2727 375.874 40.4792 376.203 39.8011C376.536 39.1231 376.999 38.5966 377.589 38.2216C378.184 37.8466 378.875 37.6591 379.663 37.6591C380.451 37.6591 381.141 37.8466 381.732 38.2216C382.326 38.5966 382.788 39.1231 383.118 39.8011C383.451 40.4792 383.618 41.2727 383.618 42.1818C383.618 43.0833 383.451 43.8712 383.118 44.5455C382.788 45.2197 382.326 45.7443 381.732 46.1193C381.141 46.4943 380.451 46.6818 379.663 46.6818ZM379.663 45.4773C380.262 45.4773 380.754 45.3239 381.141 45.017C381.527 44.7102 381.813 44.3068 381.999 43.8068C382.184 43.3068 382.277 42.7652 382.277 42.1818C382.277 41.5985 382.184 41.0549 381.999 40.5511C381.813 40.0473 381.527 39.6402 381.141 39.3295C380.754 39.0189 380.262 38.8636 379.663 38.8636C379.065 38.8636 378.572 39.0189 378.186 39.3295C377.8 39.6402 377.514 40.0473 377.328 40.5511C377.143 41.0549 377.05 41.5985 377.05 42.1818C377.05 42.7652 377.143 43.3068 377.328 43.8068C377.514 44.3068 377.8 44.7102 378.186 45.017C378.572 45.3239 379.065 45.4773 379.663 45.4773ZM385.665 49.7727V37.7727H386.96V39.1591H387.119C387.218 39.0076 387.354 38.8144 387.528 38.5795C387.706 38.3409 387.96 38.1288 388.29 37.9432C388.623 37.7538 389.074 37.6591 389.642 37.6591C390.377 37.6591 391.025 37.8428 391.585 38.2102C392.146 38.5777 392.583 39.0985 392.898 39.7727C393.212 40.447 393.369 41.2424 393.369 42.1591C393.369 43.0833 393.212 43.8845 392.898 44.5625C392.583 45.2367 392.148 45.7595 391.591 46.1307C391.034 46.4981 390.392 46.6818 389.665 46.6818C389.104 46.6818 388.655 46.589 388.318 46.4034C387.981 46.214 387.722 46 387.54 45.7614C387.358 45.5189 387.218 45.3182 387.119 45.1591H387.006V49.7727H385.665ZM386.983 42.1364C386.983 42.7955 387.08 43.3769 387.273 43.8807C387.466 44.3807 387.748 44.7727 388.119 45.0568C388.491 45.3371 388.945 45.4773 389.483 45.4773C390.044 45.4773 390.511 45.3295 390.886 45.0341C391.265 44.7348 391.549 44.3333 391.739 43.8295C391.932 43.322 392.028 42.7576 392.028 42.1364C392.028 41.5227 391.934 40.9697 391.744 40.4773C391.559 39.9811 391.277 39.589 390.898 39.3011C390.523 39.0095 390.051 38.8636 389.483 38.8636C388.938 38.8636 388.479 39.0019 388.108 39.2784C387.737 39.5511 387.456 39.9337 387.267 40.4261C387.078 40.9148 386.983 41.4848 386.983 42.1364ZM396.756 44.5227L400.96 37.7727H402.506V46.5H401.165V39.75L396.983 46.5H395.415V37.7727H396.756V44.5227ZM411.689 37.7727V46.5H410.348V37.7727H411.689ZM411.166 41.9318V43.1818C410.863 43.2955 410.562 43.3958 410.263 43.483C409.964 43.5663 409.649 43.6326 409.32 43.6818C408.99 43.7273 408.628 43.75 408.234 43.75C407.246 43.75 406.452 43.483 405.854 42.9489C405.259 42.4148 404.962 41.6136 404.962 40.5455V37.75H406.303V40.5455C406.303 40.9924 406.388 41.3598 406.558 41.6477C406.729 41.9356 406.96 42.1496 407.251 42.2898C407.543 42.4299 407.871 42.5 408.234 42.5C408.803 42.5 409.316 42.4489 409.774 42.3466C410.236 42.2405 410.7 42.1023 411.166 41.9318ZM417.808 46.6818C416.967 46.6818 416.242 46.4962 415.632 46.125C415.026 45.75 414.558 45.2273 414.229 44.5568C413.903 43.8826 413.74 43.0985 413.74 42.2045C413.74 41.3106 413.903 40.5227 414.229 39.8409C414.558 39.1553 415.017 38.6212 415.604 38.2386C416.195 37.8523 416.884 37.6591 417.672 37.6591C418.126 37.6591 418.575 37.7348 419.018 37.8864C419.462 38.0379 419.865 38.2841 420.229 38.625C420.592 38.9621 420.882 39.4091 421.098 39.9659C421.314 40.5227 421.422 41.2083 421.422 42.0227V42.5909H414.695V41.4318H420.058C420.058 40.9394 419.96 40.5 419.763 40.1136C419.57 39.7273 419.293 39.4223 418.933 39.1989C418.577 38.9754 418.157 38.8636 417.672 38.8636C417.138 38.8636 416.676 38.9962 416.286 39.2614C415.899 39.5227 415.602 39.8636 415.393 40.2841C415.185 40.7045 415.081 41.1553 415.081 41.6364V42.4091C415.081 43.0682 415.195 43.6269 415.422 44.0852C415.653 44.5398 415.973 44.8864 416.382 45.125C416.791 45.3598 417.267 45.4773 417.808 45.4773C418.161 45.4773 418.479 45.428 418.763 45.3295C419.051 45.2273 419.299 45.0758 419.507 44.875C419.715 44.6705 419.876 44.4167 419.99 44.1136L421.286 44.4773C421.149 44.9167 420.92 45.303 420.598 45.6364C420.276 45.9659 419.878 46.2235 419.405 46.4091C418.931 46.5909 418.399 46.6818 417.808 46.6818ZM427.007 46.6818C426.189 46.6818 425.484 46.4886 424.893 46.1023C424.303 45.7159 423.848 45.1837 423.53 44.5057C423.212 43.8277 423.053 43.053 423.053 42.1818C423.053 41.2955 423.215 40.5133 423.541 39.8352C423.871 39.1534 424.329 38.6212 424.916 38.2386C425.507 37.8523 426.196 37.6591 426.984 37.6591C427.598 37.6591 428.151 37.7727 428.643 38C429.136 38.2273 429.539 38.5455 429.854 38.9545C430.168 39.3636 430.363 39.8409 430.439 40.3864H429.098C428.996 39.9886 428.768 39.6364 428.416 39.3295C428.068 39.0189 427.598 38.8636 427.007 38.8636C426.484 38.8636 426.026 39 425.632 39.2727C425.242 39.5417 424.937 39.9223 424.717 40.4148C424.501 40.9034 424.393 41.4773 424.393 42.1364C424.393 42.8106 424.5 43.3977 424.712 43.8977C424.928 44.3977 425.231 44.786 425.621 45.0625C426.015 45.339 426.477 45.4773 427.007 45.4773C427.356 45.4773 427.672 45.4167 427.956 45.2955C428.24 45.1742 428.481 45 428.678 44.7727C428.875 44.5455 429.015 44.2727 429.098 43.9545H430.439C430.363 44.4697 430.176 44.9337 429.876 45.3466C429.581 45.7557 429.189 46.0814 428.7 46.3239C428.215 46.5625 427.651 46.6818 427.007 46.6818ZM432.399 46.5V37.7727H433.74V41.5682H434.626L437.763 37.7727H439.49L435.967 41.9773L439.536 46.5H437.808L434.945 42.8182H433.74V46.5H432.399ZM442.334 44.5227L446.538 37.7727H448.084V46.5H446.743V39.75L442.561 46.5H440.993V37.7727H442.334V44.5227ZM454.199 46.6818C453.358 46.6818 452.633 46.4962 452.023 46.125C451.417 45.75 450.949 45.2273 450.619 44.5568C450.294 43.8826 450.131 43.0985 450.131 42.2045C450.131 41.3106 450.294 40.5227 450.619 39.8409C450.949 39.1553 451.407 38.6212 451.994 38.2386C452.585 37.8523 453.275 37.6591 454.062 37.6591C454.517 37.6591 454.966 37.7348 455.409 37.8864C455.852 38.0379 456.256 38.2841 456.619 38.625C456.983 38.9621 457.273 39.4091 457.489 39.9659C457.705 40.5227 457.812 41.2083 457.812 42.0227V42.5909H451.085V41.4318H456.449C456.449 40.9394 456.35 40.5 456.153 40.1136C455.96 39.7273 455.684 39.4223 455.324 39.1989C454.968 38.9754 454.547 38.8636 454.062 38.8636C453.528 38.8636 453.066 38.9962 452.676 39.2614C452.29 39.5227 451.992 39.8636 451.784 40.2841C451.576 40.7045 451.472 41.1553 451.472 41.6364V42.4091C451.472 43.0682 451.585 43.6269 451.812 44.0852C452.044 44.5398 452.364 44.8864 452.773 45.125C453.182 45.3598 453.657 45.4773 454.199 45.4773C454.551 45.4773 454.869 45.428 455.153 45.3295C455.441 45.2273 455.689 45.0758 455.898 44.875C456.106 44.6705 456.267 44.4167 456.381 44.1136L457.676 44.4773C457.54 44.9167 457.311 45.303 456.989 45.6364C456.667 45.9659 456.269 46.2235 455.795 46.4091C455.322 46.5909 454.79 46.6818 454.199 46.6818ZM469.125 44.6818L472.17 37.7727H473.443L469.67 46.5H468.58L464.875 37.7727H466.125L469.125 44.6818ZM465.693 37.7727V46.5H464.352V37.7727H465.693ZM472.557 46.5V37.7727H473.898V46.5H472.557ZM480.011 46.6818C479.17 46.6818 478.445 46.4962 477.835 46.125C477.229 45.75 476.761 45.2273 476.432 44.5568C476.106 43.8826 475.943 43.0985 475.943 42.2045C475.943 41.3106 476.106 40.5227 476.432 39.8409C476.761 39.1553 477.22 38.6212 477.807 38.2386C478.398 37.8523 479.087 37.6591 479.875 37.6591C480.33 37.6591 480.778 37.7348 481.222 37.8864C481.665 38.0379 482.068 38.2841 482.432 38.625C482.795 38.9621 483.085 39.4091 483.301 39.9659C483.517 40.5227 483.625 41.2083 483.625 42.0227V42.5909H476.898V41.4318H482.261C482.261 40.9394 482.163 40.5 481.966 40.1136C481.773 39.7273 481.496 39.4223 481.136 39.1989C480.78 38.9754 480.36 38.8636 479.875 38.8636C479.341 38.8636 478.879 38.9962 478.489 39.2614C478.102 39.5227 477.805 39.8636 477.597 40.2841C477.388 40.7045 477.284 41.1553 477.284 41.6364V42.4091C477.284 43.0682 477.398 43.6269 477.625 44.0852C477.856 44.5398 478.176 44.8864 478.585 45.125C478.994 45.3598 479.47 45.4773 480.011 45.4773C480.364 45.4773 480.682 45.428 480.966 45.3295C481.254 45.2273 481.502 45.0758 481.71 44.875C481.919 44.6705 482.08 44.4167 482.193 44.1136L483.489 44.4773C483.352 44.9167 483.123 45.303 482.801 45.6364C482.479 45.9659 482.081 46.2235 481.608 46.4091C481.134 46.5909 480.602 46.6818 480.011 46.6818ZM489.21 46.6818C488.392 46.6818 487.688 46.4886 487.097 46.1023C486.506 45.7159 486.051 45.1837 485.733 44.5057C485.415 43.8277 485.256 43.053 485.256 42.1818C485.256 41.2955 485.419 40.5133 485.744 39.8352C486.074 39.1534 486.532 38.6212 487.119 38.2386C487.71 37.8523 488.4 37.6591 489.188 37.6591C489.801 37.6591 490.354 37.7727 490.847 38C491.339 38.2273 491.742 38.5455 492.057 38.9545C492.371 39.3636 492.566 39.8409 492.642 40.3864H491.301C491.199 39.9886 490.972 39.6364 490.619 39.3295C490.271 39.0189 489.801 38.8636 489.21 38.8636C488.688 38.8636 488.229 39 487.835 39.2727C487.445 39.5417 487.14 39.9223 486.92 40.4148C486.705 40.9034 486.597 41.4773 486.597 42.1364C486.597 42.8106 486.703 43.3977 486.915 43.8977C487.131 44.3977 487.434 44.786 487.824 45.0625C488.218 45.339 488.68 45.4773 489.21 45.4773C489.559 45.4773 489.875 45.4167 490.159 45.2955C490.443 45.1742 490.684 45 490.881 44.7727C491.078 44.5455 491.218 44.2727 491.301 43.9545H492.642C492.566 44.4697 492.379 44.9337 492.08 45.3466C491.784 45.7557 491.392 46.0814 490.903 46.3239C490.419 46.5625 489.854 46.6818 489.21 46.6818ZM493.915 39.0227V37.7727H501.006V39.0227H498.142V46.5H496.801V39.0227H493.915ZM505.077 46.7045C504.524 46.7045 504.022 46.6004 503.571 46.392C503.12 46.1799 502.762 45.875 502.497 45.4773C502.232 45.0758 502.099 44.5909 502.099 44.0227C502.099 43.5227 502.198 43.1174 502.395 42.8068C502.592 42.4924 502.855 42.2462 503.185 42.0682C503.514 41.8902 503.878 41.7576 504.276 41.6705C504.677 41.5795 505.08 41.5076 505.486 41.4545C506.016 41.3864 506.446 41.3352 506.776 41.3011C507.109 41.2633 507.351 41.2008 507.503 41.1136C507.658 41.0265 507.736 40.875 507.736 40.6591V40.6136C507.736 40.053 507.582 39.6174 507.276 39.3068C506.973 38.9962 506.512 38.8409 505.895 38.8409C505.255 38.8409 504.753 38.9811 504.389 39.2614C504.026 39.5417 503.77 39.8409 503.622 40.1591L502.349 39.7045C502.577 39.1742 502.88 38.7614 503.259 38.4659C503.641 38.1667 504.058 37.9583 504.509 37.8409C504.963 37.7197 505.41 37.6591 505.849 37.6591C506.13 37.6591 506.452 37.6932 506.815 37.7614C507.183 37.8258 507.537 37.9602 507.878 38.1648C508.223 38.3693 508.509 38.678 508.736 39.0909C508.963 39.5038 509.077 40.0568 509.077 40.75V46.5H507.736V45.3182H507.668C507.577 45.5076 507.425 45.7102 507.213 45.9261C507.001 46.142 506.719 46.3258 506.366 46.4773C506.014 46.6288 505.584 46.7045 505.077 46.7045ZM505.281 45.5C505.812 45.5 506.259 45.3958 506.622 45.1875C506.99 44.9792 507.266 44.7102 507.452 44.3807C507.641 44.0511 507.736 43.7045 507.736 43.3409V42.1136C507.679 42.1818 507.554 42.2443 507.361 42.3011C507.171 42.3542 506.952 42.4015 506.702 42.4432C506.455 42.4811 506.215 42.5152 505.98 42.5455C505.749 42.572 505.562 42.5947 505.418 42.6136C505.069 42.6591 504.743 42.733 504.44 42.8352C504.141 42.9337 503.899 43.0833 503.713 43.2841C503.531 43.4811 503.44 43.75 503.44 44.0909C503.44 44.5568 503.613 44.9091 503.957 45.1477C504.306 45.3826 504.747 45.5 505.281 45.5Z" fill="#1E1E1E"/>
<path d="M545.114 34.8636V46.5H543.705V36.1136H537.841V46.5H536.432V34.8636H545.114ZM551.32 46.6818C550.532 46.6818 549.84 46.4943 549.246 46.1193C548.655 45.7443 548.193 45.2197 547.859 44.5455C547.53 43.8712 547.365 43.0833 547.365 42.1818C547.365 41.2727 547.53 40.4792 547.859 39.8011C548.193 39.1231 548.655 38.5966 549.246 38.2216C549.84 37.8466 550.532 37.6591 551.32 37.6591C552.107 37.6591 552.797 37.8466 553.388 38.2216C553.982 38.5966 554.445 39.1231 554.774 39.8011C555.107 40.4792 555.274 41.2727 555.274 42.1818C555.274 43.0833 555.107 43.8712 554.774 44.5455C554.445 45.2197 553.982 45.7443 553.388 46.1193C552.797 46.4943 552.107 46.6818 551.32 46.6818ZM551.32 45.4773C551.918 45.4773 552.411 45.3239 552.797 45.017C553.183 44.7102 553.469 44.3068 553.655 43.8068C553.84 43.3068 553.933 42.7652 553.933 42.1818C553.933 41.5985 553.84 41.0549 553.655 40.5511C553.469 40.0473 553.183 39.6402 552.797 39.3295C552.411 39.0189 551.918 38.8636 551.32 38.8636C550.721 38.8636 550.229 39.0189 549.842 39.3295C549.456 39.6402 549.17 40.0473 548.984 40.5511C548.799 41.0549 548.706 41.5985 548.706 42.1818C548.706 42.7652 548.799 43.3068 548.984 43.8068C549.17 44.3068 549.456 44.7102 549.842 45.017C550.229 45.3239 550.721 45.4773 551.32 45.4773ZM557.321 46.5V37.7727H564.185V46.5H562.844V39.0227H558.662V46.5H557.321ZM567.185 49.7727C566.957 49.7727 566.755 49.7538 566.577 49.7159C566.399 49.6818 566.276 49.6477 566.207 49.6136L566.548 48.4318C566.874 48.5152 567.162 48.5455 567.412 48.5227C567.662 48.5 567.884 48.3883 568.077 48.1875C568.274 47.9905 568.454 47.6705 568.616 47.2273L568.866 46.5455L565.639 37.7727H567.094L569.503 44.7273H569.594L572.003 37.7727H573.457L569.753 47.7727C569.586 48.2235 569.38 48.5966 569.134 48.892C568.887 49.1913 568.601 49.4129 568.276 49.5568C567.954 49.7008 567.59 49.7727 567.185 49.7727ZM573.72 46.5V45.25H574.038C574.3 45.25 574.518 45.1989 574.692 45.0966C574.866 44.9905 575.006 44.8068 575.112 44.5455C575.222 44.2803 575.305 43.9129 575.362 43.4432C575.423 42.9697 575.466 42.3674 575.493 41.6364L575.652 37.7727H581.47V46.5H580.129V39.0227H576.925L576.788 42.1364C576.758 42.8523 576.694 43.483 576.595 44.0284C576.5 44.5701 576.355 45.0246 576.158 45.392C575.964 45.7595 575.707 46.036 575.385 46.2216C575.063 46.4072 574.66 46.5 574.175 46.5H573.72ZM589.18 46.5V39H586.862C586.339 39 585.929 39.1212 585.629 39.3636C585.33 39.6061 585.18 39.9394 585.18 40.3636C585.18 40.7803 585.315 41.108 585.584 41.3466C585.857 41.5852 586.23 41.7045 586.703 41.7045H589.521V42.9545H586.703C586.112 42.9545 585.603 42.8504 585.175 42.642C584.747 42.4337 584.417 42.1364 584.186 41.75C583.955 41.3598 583.839 40.8977 583.839 40.3636C583.839 39.8258 583.961 39.3636 584.203 38.9773C584.446 38.5909 584.792 38.2936 585.243 38.0852C585.697 37.8769 586.237 37.7727 586.862 37.7727H590.453V46.5H589.18ZM583.362 46.5L585.839 42.1591H587.294L584.817 46.5H583.362ZM592.915 49.7727V37.7727H594.21V39.1591H594.369C594.468 39.0076 594.604 38.8144 594.778 38.5795C594.956 38.3409 595.21 38.1288 595.54 37.9432C595.873 37.7538 596.324 37.6591 596.892 37.6591C597.627 37.6591 598.275 37.8428 598.835 38.2102C599.396 38.5777 599.833 39.0985 600.148 39.7727C600.462 40.447 600.619 41.2424 600.619 42.1591C600.619 43.0833 600.462 43.8845 600.148 44.5625C599.833 45.2367 599.398 45.7595 598.841 46.1307C598.284 46.4981 597.642 46.6818 596.915 46.6818C596.354 46.6818 595.905 46.589 595.568 46.4034C595.231 46.214 594.972 46 594.79 45.7614C594.608 45.5189 594.468 45.3182 594.369 45.1591H594.256V49.7727H592.915ZM594.233 42.1364C594.233 42.7955 594.33 43.3769 594.523 43.8807C594.716 44.3807 594.998 44.7727 595.369 45.0568C595.741 45.3371 596.195 45.4773 596.733 45.4773C597.294 45.4773 597.761 45.3295 598.136 45.0341C598.515 44.7348 598.799 44.3333 598.989 43.8295C599.182 43.322 599.278 42.7576 599.278 42.1364C599.278 41.5227 599.184 40.9697 598.994 40.4773C598.809 39.9811 598.527 39.589 598.148 39.3011C597.773 39.0095 597.301 38.8636 596.733 38.8636C596.188 38.8636 595.729 39.0019 595.358 39.2784C594.987 39.5511 594.706 39.9337 594.517 40.4261C594.328 40.9148 594.233 41.4848 594.233 42.1364ZM608.506 41.5227V42.7727H603.688V41.5227H608.506ZM604.006 37.7727V46.5H602.665V37.7727H604.006ZM609.528 37.7727V46.5H608.188V37.7727H609.528ZM613.136 40.9318H615.636C616.659 40.9318 617.441 41.1913 617.983 41.7102C618.525 42.2292 618.795 42.8864 618.795 43.6818C618.795 44.2045 618.674 44.6799 618.432 45.108C618.189 45.5322 617.833 45.8712 617.364 46.125C616.894 46.375 616.318 46.5 615.636 46.5H611.977V37.7727H613.318V45.25H615.636C616.167 45.25 616.602 45.1098 616.943 44.8295C617.284 44.5492 617.455 44.1894 617.455 43.75C617.455 43.2879 617.284 42.911 616.943 42.6193C616.602 42.3277 616.167 42.1818 615.636 42.1818H613.136V40.9318ZM620.182 46.5V37.7727H621.523V46.5H620.182ZM627.636 46.6818C626.795 46.6818 626.07 46.4962 625.46 46.125C624.854 45.75 624.386 45.2273 624.057 44.5568C623.731 43.8826 623.568 43.0985 623.568 42.2045C623.568 41.3106 623.731 40.5227 624.057 39.8409C624.386 39.1553 624.845 38.6212 625.432 38.2386C626.023 37.8523 626.712 37.6591 627.5 37.6591C627.955 37.6591 628.403 37.7348 628.847 37.8864C629.29 38.0379 629.693 38.2841 630.057 38.625C630.42 38.9621 630.71 39.4091 630.926 39.9659C631.142 40.5227 631.25 41.2083 631.25 42.0227V42.5909H624.523V41.4318H629.886C629.886 40.9394 629.788 40.5 629.591 40.1136C629.398 39.7273 629.121 39.4223 628.761 39.1989C628.405 38.9754 627.985 38.8636 627.5 38.8636C626.966 38.8636 626.504 38.9962 626.114 39.2614C625.727 39.5227 625.43 39.8636 625.222 40.2841C625.013 40.7045 624.909 41.1553 624.909 41.6364V42.4091C624.909 43.0682 625.023 43.6269 625.25 44.0852C625.481 44.5398 625.801 44.8864 626.21 45.125C626.619 45.3598 627.095 45.4773 627.636 45.4773C627.989 45.4773 628.307 45.428 628.591 45.3295C628.879 45.2273 629.127 45.0758 629.335 44.875C629.544 44.6705 629.705 44.4167 629.818 44.1136L631.114 44.4773C630.977 44.9167 630.748 45.303 630.426 45.6364C630.104 45.9659 629.706 46.2235 629.233 46.4091C628.759 46.5909 628.227 46.6818 627.636 46.6818ZM637.29 39.0227V37.7727H644.381V39.0227H641.517V46.5H640.176V39.0227H637.29ZM647.2 49.7727C646.973 49.7727 646.77 49.7538 646.592 49.7159C646.414 49.6818 646.291 49.6477 646.223 49.6136L646.564 48.4318C646.89 48.5152 647.178 48.5455 647.428 48.5227C647.678 48.5 647.899 48.3883 648.092 48.1875C648.289 47.9905 648.469 47.6705 648.632 47.2273L648.882 46.5455L645.655 37.7727H647.109L649.518 44.7273H649.609L652.018 37.7727H653.473L649.768 47.7727C649.602 48.2235 649.395 48.5966 649.149 48.892C648.903 49.1913 648.617 49.4129 648.291 49.5568C647.969 49.7008 647.606 49.7727 647.2 49.7727ZM655.243 49.7727V37.7727H656.538V39.1591H656.697C656.796 39.0076 656.932 38.8144 657.107 38.5795C657.285 38.3409 657.538 38.1288 657.868 37.9432C658.201 37.7538 658.652 37.6591 659.22 37.6591C659.955 37.6591 660.603 37.8428 661.163 38.2102C661.724 38.5777 662.161 39.0985 662.476 39.7727C662.79 40.447 662.947 41.2424 662.947 42.1591C662.947 43.0833 662.79 43.8845 662.476 44.5625C662.161 45.2367 661.726 45.7595 661.169 46.1307C660.612 46.4981 659.97 46.6818 659.243 46.6818C658.682 46.6818 658.233 46.589 657.896 46.4034C657.559 46.214 657.3 46 657.118 45.7614C656.936 45.5189 656.796 45.3182 656.697 45.1591H656.584V49.7727H655.243ZM656.561 42.1364C656.561 42.7955 656.658 43.3769 656.851 43.8807C657.044 44.3807 657.326 44.7727 657.697 45.0568C658.069 45.3371 658.523 45.4773 659.061 45.4773C659.622 45.4773 660.089 45.3295 660.464 45.0341C660.843 44.7348 661.127 44.3333 661.317 43.8295C661.51 43.322 661.607 42.7576 661.607 42.1364C661.607 41.5227 661.512 40.9697 661.322 40.4773C661.137 39.9811 660.855 39.589 660.476 39.3011C660.101 39.0095 659.629 38.8636 659.061 38.8636C658.516 38.8636 658.057 39.0019 657.686 39.2784C657.315 39.5511 657.035 39.9337 656.845 40.4261C656.656 40.9148 656.561 41.4848 656.561 42.1364ZM666.152 40.9318H668.652C669.675 40.9318 670.457 41.1913 670.999 41.7102C671.54 42.2292 671.811 42.8864 671.811 43.6818C671.811 44.2045 671.69 44.6799 671.447 45.108C671.205 45.5322 670.849 45.8712 670.379 46.125C669.91 46.375 669.334 46.5 668.652 46.5H664.993V37.7727H666.334V45.25H668.652C669.182 45.25 669.618 45.1098 669.959 44.8295C670.3 44.5492 670.47 44.1894 670.47 43.75C670.47 43.2879 670.3 42.911 669.959 42.6193C669.618 42.3277 669.182 42.1818 668.652 42.1818H666.152V40.9318ZM673.197 46.5V37.7727H674.538V46.5H673.197Z" fill="#1E1E1E"/>
<path d="M708.432 34.8636V36.1136H702.818V46.5H701.409V34.8636H708.432ZM709.658 46.5V45.25H709.976C710.237 45.25 710.455 45.1989 710.629 45.0966C710.804 44.9905 710.944 44.8068 711.05 44.5455C711.16 44.2803 711.243 43.9129 711.3 43.4432C711.36 42.9697 711.404 42.3674 711.43 41.6364L711.589 37.7727H717.408V46.5H716.067V39.0227H712.862L712.726 42.1364C712.696 42.8523 712.631 43.483 712.533 44.0284C712.438 44.5701 712.292 45.0246 712.095 45.392C711.902 45.7595 711.644 46.036 711.322 46.2216C711 46.4072 710.597 46.5 710.112 46.5H709.658ZM722.436 46.7045C721.883 46.7045 721.381 46.6004 720.93 46.392C720.48 46.1799 720.122 45.875 719.857 45.4773C719.591 45.0758 719.459 44.5909 719.459 44.0227C719.459 43.5227 719.557 43.1174 719.754 42.8068C719.951 42.4924 720.214 42.2462 720.544 42.0682C720.874 41.8902 721.237 41.7576 721.635 41.6705C722.036 41.5795 722.44 41.5076 722.845 41.4545C723.375 41.3864 723.805 41.3352 724.135 41.3011C724.468 41.2633 724.711 41.2008 724.862 41.1136C725.018 41.0265 725.095 40.875 725.095 40.6591V40.6136C725.095 40.053 724.942 39.6174 724.635 39.3068C724.332 38.9962 723.872 38.8409 723.254 38.8409C722.614 38.8409 722.112 38.9811 721.749 39.2614C721.385 39.5417 721.129 39.8409 720.982 40.1591L719.709 39.7045C719.936 39.1742 720.239 38.7614 720.618 38.4659C721 38.1667 721.417 37.9583 721.868 37.8409C722.322 37.7197 722.769 37.6591 723.209 37.6591C723.489 37.6591 723.811 37.6932 724.175 37.7614C724.542 37.8258 724.896 37.9602 725.237 38.1648C725.582 38.3693 725.868 38.678 726.095 39.0909C726.322 39.5038 726.436 40.0568 726.436 40.75V46.5H725.095V45.3182H725.027C724.936 45.5076 724.785 45.7102 724.572 45.9261C724.36 46.142 724.078 46.3258 723.726 46.4773C723.374 46.6288 722.944 46.7045 722.436 46.7045ZM722.641 45.5C723.171 45.5 723.618 45.3958 723.982 45.1875C724.349 44.9792 724.625 44.7102 724.811 44.3807C725 44.0511 725.095 43.7045 725.095 43.3409V42.1136C725.038 42.1818 724.913 42.2443 724.72 42.3011C724.531 42.3542 724.311 42.4015 724.061 42.4432C723.815 42.4811 723.574 42.5152 723.339 42.5455C723.108 42.572 722.921 42.5947 722.777 42.6136C722.429 42.6591 722.103 42.733 721.8 42.8352C721.5 42.9337 721.258 43.0833 721.072 43.2841C720.891 43.4811 720.8 43.75 720.8 44.0909C720.8 44.5568 720.972 44.9091 721.317 45.1477C721.665 45.3826 722.107 45.5 722.641 45.5ZM728.884 46.5V37.7727H732.452C733.391 37.7727 734.137 37.9848 734.69 38.4091C735.243 38.8333 735.52 39.3939 735.52 40.0909C735.52 40.6212 735.363 41.0322 735.048 41.3239C734.734 41.6117 734.33 41.8068 733.838 41.9091C734.16 41.9545 734.473 42.0682 734.776 42.25C735.082 42.4318 735.336 42.6818 735.537 43C735.738 43.3144 735.838 43.7008 735.838 44.1591C735.838 44.6061 735.724 45.0057 735.497 45.358C735.27 45.7102 734.944 45.9886 734.52 46.1932C734.096 46.3977 733.588 46.5 732.997 46.5H728.884ZM730.156 45.2727H732.997C733.459 45.2727 733.821 45.1629 734.082 44.9432C734.344 44.7235 734.474 44.4242 734.474 44.0455C734.474 43.5947 734.344 43.2405 734.082 42.983C733.821 42.7216 733.459 42.5909 732.997 42.5909H730.156V45.2727ZM730.156 41.4318H732.452C732.812 41.4318 733.12 41.3826 733.378 41.2841C733.635 41.1818 733.832 41.0379 733.969 40.8523C734.109 40.6629 734.179 40.4394 734.179 40.1818C734.179 39.8144 734.026 39.5265 733.719 39.3182C733.412 39.1061 732.99 39 732.452 39H730.156V41.4318ZM743.709 41.5227V42.7727H738.891V41.5227H743.709ZM739.209 37.7727V46.5H737.868V37.7727H739.209ZM744.732 37.7727V46.5H743.391V37.7727H744.732ZM749.749 46.7045C749.196 46.7045 748.694 46.6004 748.243 46.392C747.792 46.1799 747.434 45.875 747.169 45.4773C746.904 45.0758 746.771 44.5909 746.771 44.0227C746.771 43.5227 746.87 43.1174 747.067 42.8068C747.264 42.4924 747.527 42.2462 747.857 42.0682C748.186 41.8902 748.55 41.7576 748.947 41.6705C749.349 41.5795 749.752 41.5076 750.158 41.4545C750.688 41.3864 751.118 41.3352 751.447 41.3011C751.781 41.2633 752.023 41.2008 752.175 41.1136C752.33 41.0265 752.408 40.875 752.408 40.6591V40.6136C752.408 40.053 752.254 39.6174 751.947 39.3068C751.644 38.9962 751.184 38.8409 750.567 38.8409C749.927 38.8409 749.425 38.9811 749.061 39.2614C748.697 39.5417 748.442 39.8409 748.294 40.1591L747.021 39.7045C747.249 39.1742 747.552 38.7614 747.93 38.4659C748.313 38.1667 748.73 37.9583 749.18 37.8409C749.635 37.7197 750.082 37.6591 750.521 37.6591C750.802 37.6591 751.124 37.6932 751.487 37.7614C751.855 37.8258 752.209 37.9602 752.55 38.1648C752.894 38.3693 753.18 38.678 753.408 39.0909C753.635 39.5038 753.749 40.0568 753.749 40.75V46.5H752.408V45.3182H752.339C752.249 45.5076 752.097 45.7102 751.885 45.9261C751.673 46.142 751.391 46.3258 751.038 46.4773C750.686 46.6288 750.256 46.7045 749.749 46.7045ZM749.953 45.5C750.483 45.5 750.93 45.3958 751.294 45.1875C751.661 44.9792 751.938 44.7102 752.124 44.3807C752.313 44.0511 752.408 43.7045 752.408 43.3409V42.1136C752.351 42.1818 752.226 42.2443 752.033 42.3011C751.843 42.3542 751.624 42.4015 751.374 42.4432C751.127 42.4811 750.887 42.5152 750.652 42.5455C750.421 42.572 750.233 42.5947 750.089 42.6136C749.741 42.6591 749.415 42.733 749.112 42.8352C748.813 42.9337 748.571 43.0833 748.385 43.2841C748.203 43.4811 748.112 43.75 748.112 44.0909C748.112 44.5568 748.285 44.9091 748.629 45.1477C748.978 45.3826 749.419 45.5 749.953 45.5ZM761.446 46.5V39H759.128C758.605 39 758.194 39.1212 757.895 39.3636C757.596 39.6061 757.446 39.9394 757.446 40.3636C757.446 40.7803 757.58 41.108 757.849 41.3466C758.122 41.5852 758.495 41.7045 758.969 41.7045H761.787V42.9545H758.969C758.378 42.9545 757.868 42.8504 757.44 42.642C757.012 42.4337 756.683 42.1364 756.452 41.75C756.221 41.3598 756.105 40.8977 756.105 40.3636C756.105 39.8258 756.226 39.3636 756.469 38.9773C756.711 38.5909 757.058 38.2936 757.509 38.0852C757.963 37.8769 758.503 37.7727 759.128 37.7727H762.719V46.5H761.446ZM755.628 46.5L758.105 42.1591H759.56L757.082 46.5H755.628Z" fill="#1E1E1E"/>
<path d="M844.5 32.5C844.5 28.3579 847.858 25 852 25H919C923.142 25 926.5 28.3579 926.5 32.5V48.5C926.5 52.6421 923.142 56 919 56H852C847.858 56 844.5 52.6421 844.5 48.5V32.5Z" fill="#E3E3E3"/>
<path d="M844.5 32.5C844.5 28.3579 847.858 25 852 25H919C923.142 25 926.5 28.3579 926.5 32.5V48.5C926.5 52.6421 923.142 56 919 56H852C847.858 56 844.5 52.6421 844.5 48.5V32.5Z" stroke="#767676" stroke-linecap="round"/>
<path d="M867.409 46.5V34.8636H871.477C872.288 34.8636 872.956 35.0038 873.483 35.2841C874.009 35.5606 874.402 35.9337 874.659 36.4034C874.917 36.8693 875.045 37.3864 875.045 37.9545C875.045 38.4545 874.956 38.8674 874.778 39.1932C874.604 39.5189 874.373 39.7765 874.085 39.9659C873.801 40.1553 873.492 40.2955 873.159 40.3864V40.5C873.515 40.5227 873.873 40.6477 874.233 40.875C874.593 41.1023 874.894 41.428 875.136 41.8523C875.379 42.2765 875.5 42.7955 875.5 43.4091C875.5 43.9924 875.367 44.517 875.102 44.983C874.837 45.4489 874.419 45.8182 873.847 46.0909C873.275 46.3636 872.53 46.5 871.614 46.5H867.409ZM868.818 45.25H871.614C872.534 45.25 873.188 45.072 873.574 44.7159C873.964 44.3561 874.159 43.9205 874.159 43.4091C874.159 43.0152 874.059 42.6515 873.858 42.3182C873.657 41.9811 873.371 41.7121 873 41.5114C872.629 41.3068 872.189 41.2045 871.682 41.2045H868.818V45.25ZM868.818 39.9773H871.432C871.856 39.9773 872.239 39.8939 872.58 39.7273C872.924 39.5606 873.197 39.3258 873.398 39.0227C873.602 38.7197 873.705 38.3636 873.705 37.9545C873.705 37.4432 873.527 37.0095 873.17 36.6534C872.814 36.2936 872.25 36.1136 871.477 36.1136H868.818V39.9773ZM878.634 37.7727L880.724 41.3409L882.815 37.7727H884.361L881.543 42.1364L884.361 46.5H882.815L880.724 43.1136L878.634 46.5H877.088L879.861 42.1364L877.088 37.7727H878.634ZM889.46 46.6818C888.672 46.6818 887.981 46.4943 887.386 46.1193C886.795 45.7443 886.333 45.2197 886 44.5455C885.67 43.8712 885.506 43.0833 885.506 42.1818C885.506 41.2727 885.67 40.4792 886 39.8011C886.333 39.1231 886.795 38.5966 887.386 38.2216C887.981 37.8466 888.672 37.6591 889.46 37.6591C890.248 37.6591 890.938 37.8466 891.528 38.2216C892.123 38.5966 892.585 39.1231 892.915 39.8011C893.248 40.4792 893.415 41.2727 893.415 42.1818C893.415 43.0833 893.248 43.8712 892.915 44.5455C892.585 45.2197 892.123 45.7443 891.528 46.1193C890.938 46.4943 890.248 46.6818 889.46 46.6818ZM889.46 45.4773C890.059 45.4773 890.551 45.3239 890.938 45.017C891.324 44.7102 891.61 44.3068 891.795 43.8068C891.981 43.3068 892.074 42.7652 892.074 42.1818C892.074 41.5985 891.981 41.0549 891.795 40.5511C891.61 40.0473 891.324 39.6402 890.938 39.3295C890.551 39.0189 890.059 38.8636 889.46 38.8636C888.862 38.8636 888.369 39.0189 887.983 39.3295C887.597 39.6402 887.311 40.0473 887.125 40.5511C886.939 41.0549 886.847 41.5985 886.847 42.1818C886.847 42.7652 886.939 43.3068 887.125 43.8068C887.311 44.3068 887.597 44.7102 887.983 45.017C888.369 45.3239 888.862 45.4773 889.46 45.4773ZM894.53 49V45.25H895.257C895.435 45.0644 895.589 44.8636 895.717 44.6477C895.846 44.4318 895.958 44.1761 896.053 43.8807C896.151 43.5814 896.234 43.2178 896.303 42.7898C896.371 42.358 896.431 41.8371 896.484 41.2273L896.78 37.7727H902.325V45.25H903.666V49H902.325V46.5H895.871V49H894.53ZM896.78 45.25H900.984V39.0227H898.03L897.803 41.2273C897.708 42.1402 897.59 42.9375 897.45 43.6193C897.31 44.3011 897.087 44.8447 896.78 45.25Z" fill="#1E1E1E"/>
<g filter="url(#filter0_d_741_545)">
<path d="M939 32.5C939 28.0817 942.582 24.5 947 24.5H1014C1018.42 24.5 1022 28.0817 1022 32.5V48.5C1022 52.9183 1018.42 56.5 1014 56.5H947C942.582 56.5 939 52.9183 939 48.5V32.5Z" fill="#2C2C2C" shape-rendering="crispEdges"/>
<path d="M939.5 32.5C939.5 28.3579 942.858 25 947 25H1014C1018.14 25 1021.5 28.3579 1021.5 32.5V48.5C1021.5 52.6421 1018.14 56 1014 56H947C942.858 56 939.5 52.6421 939.5 48.5V32.5Z" stroke="#2C2C2C" stroke-linecap="round" shape-rendering="crispEdges"/>
<path d="M950.409 38.5V26.8636H954.341C955.254 26.8636 956 27.0284 956.58 27.358C957.163 27.6837 957.595 28.125 957.875 28.6818C958.155 29.2386 958.295 29.8598 958.295 30.5455C958.295 31.2311 958.155 31.8542 957.875 32.4148C957.598 32.9754 957.17 33.4223 956.591 33.7557C956.011 34.0852 955.269 34.25 954.364 34.25H951.545V33H954.318C954.943 33 955.445 32.892 955.824 32.6761C956.203 32.4602 956.477 32.1686 956.648 31.8011C956.822 31.4299 956.909 31.0114 956.909 30.5455C956.909 30.0795 956.822 29.6629 956.648 29.2955C956.477 28.928 956.201 28.6402 955.818 28.4318C955.436 28.2197 954.928 28.1136 954.295 28.1136H951.818V38.5H950.409ZM963.949 38.6818C963.108 38.6818 962.383 38.4962 961.773 38.125C961.167 37.75 960.699 37.2273 960.369 36.5568C960.044 35.8826 959.881 35.0985 959.881 34.2045C959.881 33.3106 960.044 32.5227 960.369 31.8409C960.699 31.1553 961.157 30.6212 961.744 30.2386C962.335 29.8523 963.025 29.6591 963.812 29.6591C964.267 29.6591 964.716 29.7348 965.159 29.8864C965.602 30.0379 966.006 30.2841 966.369 30.625C966.733 30.9621 967.023 31.4091 967.239 31.9659C967.455 32.5227 967.562 33.2083 967.562 34.0227V34.5909H960.835V33.4318H966.199C966.199 32.9394 966.1 32.5 965.903 32.1136C965.71 31.7273 965.434 31.4223 965.074 31.1989C964.718 30.9754 964.297 30.8636 963.812 30.8636C963.278 30.8636 962.816 30.9962 962.426 31.2614C962.04 31.5227 961.742 31.8636 961.534 32.2841C961.326 32.7045 961.222 33.1553 961.222 33.6364V34.4091C961.222 35.0682 961.335 35.6269 961.562 36.0852C961.794 36.5398 962.114 36.8864 962.523 37.125C962.932 37.3598 963.407 37.4773 963.949 37.4773C964.301 37.4773 964.619 37.428 964.903 37.3295C965.191 37.2273 965.439 37.0758 965.648 36.875C965.856 36.6705 966.017 36.4167 966.131 36.1136L967.426 36.4773C967.29 36.9167 967.061 37.303 966.739 37.6364C966.417 37.9659 966.019 38.2235 965.545 38.4091C965.072 38.5909 964.54 38.6818 963.949 38.6818ZM974.989 29.7727V31.0227H970.943V38.5H969.602V29.7727H974.989ZM978.287 36.5227L982.491 29.7727H984.037V38.5H982.696V31.75L978.514 38.5H976.946V29.7727H978.287V36.5227ZM990.038 38.6818C989.22 38.6818 988.516 38.4886 987.925 38.1023C987.334 37.7159 986.879 37.1837 986.561 36.5057C986.243 35.8277 986.084 35.053 986.084 34.1818C986.084 33.2955 986.247 32.5133 986.572 31.8352C986.902 31.1534 987.36 30.6212 987.947 30.2386C988.538 29.8523 989.228 29.6591 990.016 29.6591C990.629 29.6591 991.182 29.7727 991.675 30C992.167 30.2273 992.571 30.5455 992.885 30.9545C993.199 31.3636 993.394 31.8409 993.47 32.3864H992.129C992.027 31.9886 991.8 31.6364 991.447 31.3295C991.099 31.0189 990.629 30.8636 990.038 30.8636C989.516 30.8636 989.057 31 988.663 31.2727C988.273 31.5417 987.968 31.9223 987.749 32.4148C987.533 32.9034 987.425 33.4773 987.425 34.1364C987.425 34.8106 987.531 35.3977 987.743 35.8977C987.959 36.3977 988.262 36.786 988.652 37.0625C989.046 37.339 989.508 37.4773 990.038 37.4773C990.387 37.4773 990.703 37.4167 990.987 37.2955C991.271 37.1742 991.512 37 991.709 36.7727C991.906 36.5455 992.046 36.2727 992.129 35.9545H993.47C993.394 36.4697 993.207 36.9337 992.908 37.3466C992.612 37.7557 992.22 38.0814 991.732 38.3239C991.247 38.5625 990.682 38.6818 990.038 38.6818ZM994.743 31.0227V29.7727H1001.83V31.0227H998.97V38.5H997.629V31.0227H994.743ZM950.227 57.7727V45.7727H951.523V47.1591H951.682C951.78 47.0076 951.917 46.8144 952.091 46.5795C952.269 46.3409 952.523 46.1288 952.852 45.9432C953.186 45.7538 953.636 45.6591 954.205 45.6591C954.939 45.6591 955.587 45.8428 956.148 46.2102C956.708 46.5777 957.146 47.0985 957.46 47.7727C957.775 48.447 957.932 49.2424 957.932 50.1591C957.932 51.0833 957.775 51.8845 957.46 52.5625C957.146 53.2367 956.71 53.7595 956.153 54.1307C955.597 54.4981 954.955 54.6818 954.227 54.6818C953.667 54.6818 953.218 54.589 952.881 54.4034C952.544 54.214 952.284 54 952.102 53.7614C951.92 53.5189 951.78 53.3182 951.682 53.1591H951.568V57.7727H950.227ZM951.545 50.1364C951.545 50.7955 951.642 51.3769 951.835 51.8807C952.028 52.3807 952.311 52.7727 952.682 53.0568C953.053 53.3371 953.508 53.4773 954.045 53.4773C954.606 53.4773 955.074 53.3295 955.449 53.0341C955.828 52.7348 956.112 52.3333 956.301 51.8295C956.494 51.322 956.591 50.7576 956.591 50.1364C956.591 49.5227 956.496 48.9697 956.307 48.4773C956.121 47.9811 955.839 47.589 955.46 47.3011C955.085 47.0095 954.614 46.8636 954.045 46.8636C953.5 46.8636 953.042 47.0019 952.67 47.2784C952.299 47.5511 952.019 47.9337 951.83 48.4261C951.64 48.9148 951.545 49.4848 951.545 50.1364ZM962.545 54.7045C961.992 54.7045 961.491 54.6004 961.04 54.392C960.589 54.1799 960.231 53.875 959.966 53.4773C959.701 53.0758 959.568 52.5909 959.568 52.0227C959.568 51.5227 959.667 51.1174 959.864 50.8068C960.061 50.4924 960.324 50.2462 960.653 50.0682C960.983 49.8902 961.347 49.7576 961.744 49.6705C962.146 49.5795 962.549 49.5076 962.955 49.4545C963.485 49.3864 963.915 49.3352 964.244 49.3011C964.578 49.2633 964.82 49.2008 964.972 49.1136C965.127 49.0265 965.205 48.875 965.205 48.6591V48.6136C965.205 48.053 965.051 47.6174 964.744 47.3068C964.441 46.9962 963.981 46.8409 963.364 46.8409C962.723 46.8409 962.222 46.9811 961.858 47.2614C961.494 47.5417 961.239 47.8409 961.091 48.1591L959.818 47.7045C960.045 47.1742 960.348 46.7614 960.727 46.4659C961.11 46.1667 961.527 45.9583 961.977 45.8409C962.432 45.7197 962.879 45.6591 963.318 45.6591C963.598 45.6591 963.92 45.6932 964.284 45.7614C964.652 45.8258 965.006 45.9602 965.347 46.1648C965.691 46.3693 965.977 46.678 966.205 47.0909C966.432 47.5038 966.545 48.0568 966.545 48.75V54.5H965.205V53.3182H965.136C965.045 53.5076 964.894 53.7102 964.682 53.9261C964.47 54.142 964.188 54.3258 963.835 54.4773C963.483 54.6288 963.053 54.7045 962.545 54.7045ZM962.75 53.5C963.28 53.5 963.727 53.3958 964.091 53.1875C964.458 52.9792 964.735 52.7102 964.92 52.3807C965.11 52.0511 965.205 51.7045 965.205 51.3409V50.1136C965.148 50.1818 965.023 50.2443 964.83 50.3011C964.64 50.3542 964.42 50.4015 964.17 50.4432C963.924 50.4811 963.684 50.5152 963.449 50.5455C963.218 50.572 963.03 50.5947 962.886 50.6136C962.538 50.6591 962.212 50.733 961.909 50.8352C961.61 50.9337 961.367 51.0833 961.182 51.2841C961 51.4811 960.909 51.75 960.909 52.0909C960.909 52.5568 961.081 52.9091 961.426 53.1477C961.775 53.3826 962.216 53.5 962.75 53.5ZM975.857 45.7727V53.25H977.084V57.3182H975.743V54.5H968.993V45.7727H970.334V53.25H974.516V45.7727H975.857ZM980.49 52.5227L984.695 45.7727H986.24V54.5H984.899V47.75L980.717 54.5H979.149V45.7727H980.49V52.5227ZM993.946 54.5V47H991.628C991.105 47 990.694 47.1212 990.395 47.3636C990.096 47.6061 989.946 47.9394 989.946 48.3636C989.946 48.7803 990.08 49.108 990.349 49.3466C990.622 49.5852 990.995 49.7045 991.469 49.7045H994.287V50.9545H991.469C990.878 50.9545 990.368 50.8504 989.94 50.642C989.512 50.4337 989.183 50.1364 988.952 49.75C988.721 49.3598 988.605 48.8977 988.605 48.3636C988.605 47.8258 988.726 47.3636 988.969 46.9773C989.211 46.5909 989.558 46.2936 990.009 46.0852C990.463 45.8769 991.003 45.7727 991.628 45.7727H995.219V54.5H993.946ZM988.128 54.5L990.605 50.1591H992.06L989.582 54.5H988.128Z" fill="#F5F5F5"/>
</g>
<defs>
<filter id="filter0_d_741_545" x="935" y="24.5" width="91" height="41.2727" filterUnits="userSpaceOnUse" color-interpolation-filters="sRGB">
<feFlood flood-opacity="0" result="BackgroundImageFix"/>
<feColorMatrix in="SourceAlpha" type="matrix" values="0 0 0 0 0 0 0 0 0 0 0 0 0 0 0 0 0 0 127 0" result="hardAlpha"/>
<feOffset dy="4"/>
<feGaussianBlur stdDeviation="2"/>
<feComposite in2="hardAlpha" operator="out"/>
<feColorMatrix type="matrix" values="0 0 0 0 0 0 0 0 0 0 0 0 0 0 0 0 0 0 0.25 0"/>
<feBlend mode="normal" in2="BackgroundImageFix" result="effect1_dropShadow_741_545"/>
<feBlend mode="normal" in="SourceGraphic" in2="effect1_dropShadow_741_545" result="shape"/>
</filter>
</defs>
</svg>
